{"title":"Embarrassing Bodies - S07E02","uid":16043760,"size":389117188,"categoryP":"video","categoryS":"tv_shows","magnet":"?xt=urn:btih:17274323a4884bdb9fb8db749290d611775c03f2&amp;dn=Embarrassing+Bodies+-+S07E02&amp;tr=udp%3A%2F%2Ftracker.leechers-paradise.org%3A6969&amp;tr=udp%3A%2F%2Fzer0day.ch%3A1337&amp;tr=udp%3A%2F%2Fopen.demonii.com%3A1337&amp;tr=udp%3A%2F%2Ftracker.coppersurfer.tk%3A6969&amp;tr=udp%3A%2F%2Fexodus.desync.com%3A6969","seeders":12,"leechers":3,"uploader":"Bullrout","files":1,"time":1476540712,"description":"Embarrassing Bodies - S07E02\r\n\r\nDoctor Christian helps 37-year-old Adam who has a rare penis problem. Dr Dawn helps Sally, a young mother who was born without ears. Can complex reconstruction help her hear clearly for the first time in her life and improve her appearance?\r\n\r\nComplete name                            : Embarrassing Bodies - S07E02.mp4\r\nFormat                                   : MPEG-4\r\nFormat profile                           : Base Media / Version 2\r\nCodec ID                                 : mp42 (mp42/isom/avc1)\r\nFile size                                : 371 MiB\r\nDuration                                 : 46 min 53 s\r\nOverall bit rate mode                    : Variable\r\nOverall bit rate                         : 1 106 kb/s\r\n\r\nVideo\r\nID                                       : 2\r\nFormat                                   : AVC\r\nFormat/Info                              : Advanced Video Codec\r\nFormat profile                           :   \r\nFormat settings, CABAC                   : Yes\r\nFormat settings, ReFrames                : 3 frames\r\nCodec ID                                 : avc1\r\nCodec ID/Info                            : Advanced Video Coding\r\nDuration                                 : 46 min 53 s\r\nBit rate mode                            : Variable\r\nBit rate                                 : 975 kb/s\r\nMaximum bit rate                         : 1 000 kb/s\r\nWidth                                    : 720 pixels\r\nHeight                                   : 404 pixels\r\nDisplay aspect ratio                     : 16:9\r\nOriginal display aspect ratio            : 16:9\r\nFrame rate mode                          : Constant\r\nFrame rate                               : 25.000 FPS\r\nStandard                                 : PAL\r\nColor space                              : YUV\r\nChroma subsampling                       : 4:2:0\r\nBit depth                                : 8 bits\r\nScan type                                : Progressive\r\nBits/(Pixel*Frame)                       : 0.134\r\nStream size                              : 327 MiB (88%)\r\nWriting library                          : x264 core 112\r\nColor range                              : Limited\r\nColor primaries                          : BT.601 PAL\r\nTransfer characteristics                 : BT.470 System B, BT.470 System G\r\nMatrix coefficients                      : BT.601\r\n\r\nAudio\r\nID                                       : 1\r\nFormat                                   : AAC\r\nFormat/Info                              : Advanced Audio Codec\r\nFormat profile                           : LC\r\nCodec ID                                 : 40\r\nDuration                                 : 46 min 53 s\r\nBit rate mode                            : Variable\r\nBit rate                                 : 128 kb/s\r\nMaximum bit rate                         : 576 kb/s\r\nChannel(s)                               : 2 channels\r\nChannel positions                        : Front: L R\r\nSampling rate                            : 48.0 kHz\r\nFrame rate                               : 46.875 FPS (1024 spf)\r\nCompression mode                         : Lossy\r\nStream size                              : 42.9 MiB (12%)","torrent":{"xt":"urn:btih:17274323a4884bdb9fb8db749290d611775c03f2","amp;dn":"Embarrassing+Bodies+-+S07E02","amp;tr":["udp%3A%2F%2Ftracker.leechers-paradise.org%3A6969","udp%3A%2F%2Fzer0day.ch%3A1337","udp%3A%2F%2Fopen.demonii.com%3A1337","udp%3A%2F%2Ftracker.coppersurfer.tk%3A6969","udp%3A%2F%2Fexodus.desync.com%3A6969"],"infoHash":"17274323a4884bdb9fb8db749290d611775c03f2","infoHashBuffer":{"type":"Buffer","data":[23,39,67,35,164,136,75,219,159,184,219,116,146,144,214,17,119,92,3,242]},"announce":[],"urlList":[]}}